<svg width="70" height="70" viewBox="0 0 70 70" fill="none" xmlns="http://www.w3.org/2000/svg">
<path d="M35.0002 17.5C35.7737 17.5 36.5156 17.8073 37.0626 18.3543C37.6095 18.9013 37.9168 19.6431 37.9168 20.4167V37.9167C37.9168 38.6902 37.6095 39.4321 37.0626 39.9791C36.5156 40.526 35.7737 40.8333 35.0002 40.8333C34.2266 40.8333 33.4847 40.526 32.9378 39.9791C32.3908 39.4321 32.0835 38.6902 32.0835 37.9167V20.4167C32.0835 19.6431 32.3908 18.9013 32.9378 18.3543C33.4847 17.8073 34.2266 17.5 35.0002 17.5V17.5ZM35.0002 46.6667C34.2266 46.6667 33.4847 46.974 32.9378 47.5209C32.3908 48.0679 32.0835 48.8098 32.0835 49.5833C32.0835 50.3569 32.3908 51.0988 32.9378 51.6457C33.4847 52.1927 34.2266 52.5 35.0002 52.5C35.7737 52.5 36.5156 52.1927 37.0626 51.6457C37.6095 51.0988 37.9168 50.3569 37.9168 49.5833C37.9168 48.8098 37.6095 48.0679 37.0626 47.5209C36.5156 46.974 35.7737 46.6667 35.0002 46.6667Z" fill="#F24E1E"/>
<path fill-rule="evenodd" clip-rule="evenodd" d="M35.0002 5.83334C18.8914 5.83334 5.8335 18.8913 5.8335 35C5.8335 51.1088 18.8914 64.1667 35.0002 64.1667C51.1089 64.1667 64.1668 51.1088 64.1668 35C64.1668 18.8913 51.1089 5.83334 35.0002 5.83334ZM11.6668 35C11.6668 41.1884 14.1252 47.1233 18.501 51.4992C22.8769 55.875 28.8118 58.3333 35.0002 58.3333C41.1885 58.3333 47.1235 55.875 51.4993 51.4992C55.8752 47.1233 58.3335 41.1884 58.3335 35C58.3335 28.8116 55.8752 22.8767 51.4993 18.5009C47.1235 14.125 41.1885 11.6667 35.0002 11.6667C28.8118 11.6667 22.8769 14.125 18.501 18.5009C14.1252 22.8767 11.6668 28.8116 11.6668 35V35Z" fill="#F24E1E"/>
</svg>
