<svg width="70" height="70" viewBox="0 0 70 70" fill="none" xmlns="http://www.w3.org/2000/svg">
<path d="M35 3.88889C28.8468 3.88889 22.8318 5.71352 17.7156 9.13205C12.5994 12.5506 8.61185 17.4095 6.25712 23.0943C3.9024 28.7791 3.28629 35.0345 4.48672 41.0695C5.68715 47.1044 8.6502 52.6479 13.0012 56.9989C17.3521 61.3498 22.8956 64.3129 28.9306 65.5133C34.9655 66.7137 41.2209 66.0976 46.9057 63.7429C52.5906 61.3882 57.4495 57.4006 60.868 52.2844C64.2865 47.1682 66.1112 41.1532 66.1112 35C66.1112 26.7488 62.8334 18.8356 56.9989 13.0011C51.1645 7.16665 43.2512 3.88889 35 3.88889V3.88889ZM35 62.2222C29.616 62.2222 24.3529 60.6257 19.8762 57.6344C15.3995 54.6432 11.9104 50.3917 9.84999 45.4175C7.7896 40.4433 7.25051 34.9698 8.30089 29.6892C9.35126 24.4086 11.9439 19.5581 15.751 15.751C19.5581 11.9439 24.4087 9.35122 29.6893 8.30084C34.9698 7.25047 40.4433 7.78956 45.4175 9.84994C50.3917 11.9103 54.6433 15.3995 57.6345 19.8761C60.6257 24.3528 62.2223 29.6159 62.2223 35C62.2223 42.2198 59.3542 49.1439 54.2491 54.249C49.1439 59.3542 42.2198 62.2222 35 62.2222Z" fill="#4ECB71"/>
<path d="M54.4445 23.5278C54.0802 23.1656 53.5874 22.9623 53.0737 22.9623C52.56 22.9623 52.0672 23.1656 51.7029 23.5278L30.1195 45.0139L18.4529 33.3472C18.097 32.963 17.6032 32.7359 17.0799 32.7159C16.5566 32.6958 16.0468 32.8844 15.6626 33.2403C15.2784 33.5961 15.0513 34.09 15.0312 34.6133C15.0112 35.1365 15.1998 35.6464 15.5556 36.0306L30.1195 50.5555L54.4445 26.2889C54.6268 26.1081 54.7714 25.8931 54.8702 25.6561C54.9689 25.4192 55.0197 25.165 55.0197 24.9083C55.0197 24.6516 54.9689 24.3975 54.8702 24.1605C54.7714 23.9236 54.6268 23.7085 54.4445 23.5278Z" fill="#4ECB71"/>
</svg>
